<svg style="position: absolute; width: 0; height: 0; overflow: hidden;" version="1.1" xmlns="http://www.w3.org/2000/svg" xmlns:xlink="http://www.w3.org/1999/xlink">
<defs>
<symbol id="icon-times-outline" viewBox="0 0 24 24">
<path d="M16 19c-0.802 0-1.555-0.312-2.122-0.879l-1.878-1.879-1.879 1.879c-1.133 1.133-3.109 1.133-4.243 0-0.566-0.566-0.878-1.32-0.878-2.121s0.312-1.555 0.879-2.122l1.878-1.878-1.878-1.879c-0.567-0.566-0.879-1.32-0.879-2.121s0.312-1.555 0.879-2.122c1.133-1.132 3.109-1.133 4.243 0.001l1.878 1.879 1.879-1.879c1.133-1.133 3.109-1.133 4.243 0 0.566 0.566 0.878 1.32 0.878 2.121s-0.312 1.555-0.879 2.122l-1.878 1.878 1.878 1.879c0.567 0.566 0.879 1.32 0.879 2.121s-0.312 1.555-0.879 2.122c-0.566 0.566-1.319 0.878-2.121 0.878zM12 13.414l3.293 3.293c0.378 0.378 1.037 0.377 1.414 0 0.189-0.189 0.293-0.439 0.293-0.707s-0.104-0.518-0.293-0.707l-3.292-3.293 3.292-3.293c0.189-0.189 0.293-0.44 0.293-0.707s-0.104-0.518-0.293-0.707c-0.378-0.379-1.037-0.378-1.414-0.001l-3.293 3.294-3.293-3.293c-0.378-0.378-1.037-0.377-1.414 0-0.189 0.189-0.293 0.44-0.293 0.707s0.104 0.518 0.293 0.707l3.292 3.293-3.292 3.293c-0.189 0.189-0.293 0.439-0.293 0.707s0.104 0.518 0.293 0.707c0.378 0.379 1.037 0.378 1.414 0.001l3.293-3.294z"></path>
</symbol>
<symbol id="icon-divide-outline" viewBox="0 0 24 24">
<path d="M12 8.5c-1.654 0-3-1.346-3-3s1.346-3 3-3 3 1.346 3 3-1.346 3-3 3zM12 4.5c-0.552 0-1 0.449-1 1s0.448 1 1 1 1-0.449 1-1-0.448-1-1-1z"></path>
<path d="M12 21.5c-1.654 0-3-1.346-3-3s1.346-3 3-3 3 1.346 3 3-1.346 3-3 3zM12 17.5c-0.552 0-1 0.449-1 1s0.448 1 1 1 1-0.449 1-1-0.448-1-1-1z"></path>
<path d="M18 15h-12c-1.654 0-3-1.346-3-3s1.346-3 3-3h12c1.654 0 3 1.346 3 3s-1.346 3-3 3zM6 11c-0.552 0-1 0.449-1 1s0.448 1 1 1h12c0.552 0 1-0.449 1-1s-0.448-1-1-1h-12z"></path>
</symbol>
<symbol id="icon-calculator" viewBox="0 0 24 24">
<path d="M4 16h3v-3h-3v3zM5 14h1v1h-1v-1zM8 16h3v-3h-3v3zM9 14h1v1h-1v-1zM8 20h3v-3h-3v3zM9 18h1v1h-1v-1zM4 20h3v-3h-3v3zM5 18h1v1h-1v-1zM12 16h3v-3h-3v3zM13 14h1v1h-1v-1zM10 10h1v-1h-1v1zM8 10h1v-1h-1v1zM4 12h16v-9h-16v9zM5 4h14v7h-14v-7zM20 0h-16c-1.657 0-3 1.343-3 3v18c0 1.657 1.343 3 3 3h16c1.657 0 3-1.343 3-3v-18c0-1.657-1.343-3-3-3zM21 21c0 0.553-0.447 1-1 1h-16c-0.553 0-1-0.447-1-1v-18c0-0.553 0.447-1 1-1h16c0.553 0 1 0.447 1 1v18zM12 20h3v-3h-3v3zM13 18h1v1h-1v-1zM16 20h4v-7h-4v7zM17 14h2v5h-2v-5zM6 10h1v-1h-1v1z"></path>
</symbol>
</defs>
</svg>
